<svg xmlns="http://www.w3.org/2000/svg" width="1024" height="1024" viewBox="0 0 1024 1024">
  <defs>
    <linearGradient id="barA" x1="0" y1="0" x2="1" y2="1">
      <stop offset="0%" stop-color="#6EC8FA"/>
      <stop offset="100%" stop-color="#43ACF2"/>
    </linearGradient>
    <linearGradient id="barB" x1="1" y1="0" x2="0" y2="1">
      <stop offset="0%" stop-color="#57BCF7"/>
      <stop offset="100%" stop-color="#2F9BEA"/>
    </linearGradient>
  </defs>

  <!-- Adaptive-icon foreground: keep artwork inside the 72/108 safe zone so
       the launcher mask never clips it. -->
  <g transform="translate(512 512) scale(0.854) translate(-512 -512)">
    <path fill="#FFFFFF"
          d="M512,112
             C784,112 912,240 912,512
             C912,784 784,912 512,912
             C240,912 112,784 112,512
             C112,240 240,112 512,112 Z"/>

    <g transform="translate(512 512)">
      <g transform="rotate(-45)">
        <rect x="-215" y="-139" width="430" height="93" rx="8" fill="url(#barA)"/>
        <rect x="-215" y="46" width="430" height="93" rx="8" fill="url(#barA)"/>
      </g>
      <g transform="rotate(45)">
        <rect x="-215" y="-139" width="430" height="93" rx="8" fill="url(#barB)"/>
        <rect x="-215" y="46" width="430" height="93" rx="8" fill="url(#barB)"/>
      </g>
    </g>
  </g>
</svg>
