<svg xmlns="http://www.w3.org/2000/svg" viewBox="0 0 100 100" width="32" height="32">
  <path d="M25 35c0-10 8-18 18-18s18 8 18 18c0 5-2 9-5 12l-13 20-13-20c-3-3-5-7-5-12z M57 35c0-10 8-18 18-18s18 8 18 18c0 5-2 9-5 12l-13 20-13-20c-3-3-5-7-5-12z" 
        fill="none" 
        stroke="#2c3e50" 
        stroke-width="3" 
        stroke-linecap="round" 
        stroke-linejoin="round"/>
  <path d="M35 25c5-5 15-5 20 0M67 25c5-5 15-5 20 0" 
        fill="none" 
        stroke="#2c3e50" 
        stroke-width="3" 
        stroke-linecap="round"/>
</svg>
